<mxfile host="app.diagrams.net" modified="2022-11-15T15:10:17.827Z" agent="5.0 (Macintosh; Intel Mac OS X 10_15_7) AppleWebKit/537.36 (KHTML, like Gecko) Chrome/107.0.0.0 Safari/537.36" etag="sThcfIukP4K4pssI-RBM" version="20.5.3" type="github">
  <diagram id="mDAeUo6ue5r8DACoTHrS" name="Page-1">
    <mxGraphModel dx="1426" dy="794" grid="1" gridSize="10" guides="1" tooltips="1" connect="1" arrows="1" fold="1" page="1" pageScale="1" pageWidth="850" pageHeight="1100" math="0" shadow="0">
      <root>
        <mxCell id="0" />
        <mxCell id="1" parent="0" />
        <mxCell id="Nos_kb7dK99M2C3NmWtU-2" value="" style="ellipse;whiteSpace=wrap;html=1;fillColor=#dae8fc;strokeColor=#6c8ebf;" vertex="1" parent="1">
          <mxGeometry x="90" y="200" width="790" height="500" as="geometry" />
        </mxCell>
        <mxCell id="Nos_kb7dK99M2C3NmWtU-3" value="" style="ellipse;whiteSpace=wrap;html=1;fillColor=#d5e8d4;strokeColor=#82b366;" vertex="1" parent="1">
          <mxGeometry x="177.5" y="305" width="380" height="290" as="geometry" />
        </mxCell>
        <mxCell id="Nos_kb7dK99M2C3NmWtU-4" value="&lt;span style=&quot;font-size: 18px; user-select: auto;&quot;&gt;Consensus protocol&lt;/span&gt;" style="text;html=1;strokeColor=none;fillColor=none;align=center;verticalAlign=middle;whiteSpace=wrap;rounded=0;" vertex="1" parent="1">
          <mxGeometry x="227.5" y="450" width="280" as="geometry" />
        </mxCell>
        <mxCell id="Nos_kb7dK99M2C3NmWtU-5" value="Consensus mechanism" style="text;html=1;strokeColor=none;fillColor=none;align=center;verticalAlign=middle;whiteSpace=wrap;rounded=0;fontSize=18;" vertex="1" parent="1">
          <mxGeometry x="377.5" y="240" width="215" height="30" as="geometry" />
        </mxCell>
        <mxCell id="Nos_kb7dK99M2C3NmWtU-6" value="Parts that are not defined in the code&lt;br&gt;e.g. social layer" style="text;html=1;strokeColor=none;fillColor=none;align=center;verticalAlign=middle;whiteSpace=wrap;rounded=0;fontSize=18;fontColor=#FF6666;" vertex="1" parent="1">
          <mxGeometry x="610" y="430" width="220" height="40" as="geometry" />
        </mxCell>
      </root>
    </mxGraphModel>
  </diagram>
</mxfile>
